<?xml version="1.0" encoding="utf-8"?>
 <svg xmlns="http://www.w3.org/2000/svg" viewBox="0 0 100 92.1"><style type="text/css">
 .st0{fill:#7B7B7B;}
 </style><polygon class="st0" points="52.5 56.2 39.4 60.3 43.9 46.5 72.8 17.6 82 26.8 "/><path class="st0" d="M90 0.4c0.1-0.1 0.3-0.2 0.4-0.2 0.1 0 0.5-0.1 1.1-0.2 0.5 0 1.1 0 1.6 0.1s1.2 0.4 2 0.8c0.8 0.4 1.6 1 2.3 1.7 1.3 1.2 2 2.4 2.3 3.5s0.3 2 0 2.6l-0.5 0.8 -8.8 9.4 -9.2-9.2L90 0.4z"/><path class="st0" d="M7.4 10.2c5-5 12-7.5 20.9-7.5h32.6c2.7 0 5.6 0.4 8.5 1.1L54.2 19H24.3c-2.2 0-4.1 0.8-5.7 2.4s-2.4 3.5-2.4 5.7v40.7c0 2.2 0.8 4.1 2.4 5.7s3.5 2.4 5.7 2.4H65c2.2 0 4.1-0.8 5.7-2.4s2.4-3.5 2.4-5.7V52.9l16.3-16.3v27c0 8.9-2.5 15.9-7.6 20.9S69.8 92 60.9 92H28.4c-8.9 0-15.9-2.5-20.9-7.5S0 72.5 0 63.6V31.1C-0.1 22.1 2.4 15.2 7.4 10.2z"/></svg>
