<?xml version="1.0" encoding="utf-8"?> <svg xmlns="http://www.w3.org/2000/svg" viewBox="0 0 100 100"><style type="text/css"> .st0{fill:#333333;} </style><path class="st0" d="M 81.020408,0.714286 99.183673,18.979592 Q 100,19.795918 100,20.867347 q 0,1.071429 -0.816327,1.785714 L 71.938776,50 99.183673,77.346939 Q 100,78.061224 100,79.132653 q 0,1.071429 -0.816327,1.887755 L 81.020408,99.183673 Q 80.204082,100 79.132653,100 78.061224,100 77.346939,99.183673 L 50,71.938776 22.653061,99.183673 Q 21.938776,100 20.867347,100 19.795918,100 18.979592,99.183673 L 0.81632653,81.020408 Q 0,80.204082 0,79.132653 0,78.061224 0.81632653,77.346939 L 28.061224,50 0.81632653,22.653061 Q 0,21.938776 0,20.867347 0,19.795918 0.81632653,18.979592 L 18.979592,0.816327 Q 19.795918,0 20.867347,0 21.938776,0 22.653061,0.816327 L 50,28.061224 77.346939,0.714286 Q 78.061224,0 79.132653,0 q 1.071429,0 1.887755,0.714286 z" />
</svg>
